<svg xmlns="http://www.w3.org/2000/svg" xmlns:xlink="http://www.w3.org/1999/xlink" width="2000" zoomAndPan="magnify" viewBox="0 0 1500 1499.999933" height="2000" preserveAspectRatio="xMidYMid meet" version="1.0"><defs><g/><clipPath id="6382055226"><path d="M 0.160156 378 L 734 378 L 734 1178 L 0.160156 1178 Z M 0.160156 378 " clip-rule="nonzero"/></clipPath><clipPath id="668d13e5d5"><rect x="0" width="751" y="0" height="1500"/></clipPath><clipPath id="57fe2c43e5"><rect x="0" width="728" y="0" height="1500"/></clipPath></defs><rect x="-150" width="1800" fill="#ffffff" y="-149.999993" height="1799.99992" fill-opacity="1"/><rect x="-150" width="1800" fill="#ff6200" y="-149.999993" height="1799.99992" fill-opacity="1"/><g transform="matrix(1, 0, 0, 1, 620, 0.000000000000112861)"><g clip-path="url(#668d13e5d5)"><g clip-path="url(#6382055226)"><g fill="#000000" fill-opacity="1"><g transform="translate(30.26265, 1149.900925)"><g><path d="M 393.8125 -408.703125 L 436.625 -605.367188 L 464.234375 -599.355469 L 464.234375 -571.101562 L 318.40625 -571.101562 L 318.40625 -599.355469 L 346.007812 -593.296875 L 294.09375 -356.878906 L 232.613281 -315.105469 L 216.730469 -338.476562 L 243.96875 -345.996094 L 270.574219 -249.632812 L 210.050781 27.585938 L -34.4375 27.585938 L 112.871094 -645.53125 L 140.472656 -639.492188 L 118.117188 -622.214844 L 3.328125 -770.761719 L 627.449219 -770.761719 C 638.953125 -770.761719 649.75 -767.394531 659.847656 -760.664062 C 667.128906 -755.8125 673.777344 -750.074219 679.796875 -743.453125 L 680.207031 -743 L 680.597656 -742.535156 C 686.878906 -734.996094 691.683594 -727.238281 695.007812 -719.257812 C 700.175781 -706.339844 701.429688 -695.226562 698.769531 -685.910156 L 671.601562 -693.675781 L 699.210938 -687.667969 L 613.378906 -293.117188 L 286.316406 -130.742188 L 228.765625 -337.199219 L 408.699219 -427.921875 L 421.421875 -402.691406 Z M 446.167969 -383.523438 L 274.941406 -297.191406 L 262.21875 -322.421875 L 289.4375 -330.007812 L 331.578125 -178.832031 L 304.359375 -171.246094 L 291.796875 -196.554688 L 576.089844 -337.695312 L 588.652344 -312.386719 L 561.042969 -318.394531 L 644.183594 -700.566406 L 644.429688 -701.4375 C 643.671875 -698.773438 643.460938 -696.507812 643.800781 -694.640625 C 643.691406 -695.226562 643.375 -696.1875 642.84375 -697.523438 C 641.707031 -700.246094 639.820312 -703.191406 637.183594 -706.355469 L 658.890625 -724.445312 L 637.984375 -705.4375 C 635.082031 -708.628906 631.921875 -711.363281 628.5 -713.644531 C 628.019531 -713.964844 627.640625 -714.167969 627.367188 -714.257812 C 627.382812 -714.253906 627.410156 -714.25 627.449219 -714.25 L 60.871094 -714.25 L 60.871094 -742.507812 L 83.230469 -759.78125 L 170.894531 -646.332031 L 28.273438 5.371094 L 0.667969 -0.667969 L 0.667969 -28.925781 L 187.296875 -28.925781 L 187.296875 -0.667969 L 159.691406 -6.695312 L 213.875 -254.867188 L 241.480469 -248.839844 L 214.246094 -241.320312 L 184.105469 -350.46875 L 253.027344 -397.300781 L 268.90625 -373.929688 L 241.308594 -379.988281 L 295.683594 -627.613281 L 499.300781 -627.613281 L 449.03125 -396.683594 Z M 446.167969 -383.523438 "/></g></g></g></g><g fill="#ffffff" fill-opacity="1"><g transform="translate(30.26265, 1149.900925)"><g><path d="M 421.421875 -402.6875 L 464.234375 -599.359375 L 318.40625 -599.359375 L 268.90625 -373.921875 L 216.734375 -338.46875 L 241.484375 -248.84375 L 187.296875 -0.671875 L 0.671875 -0.671875 L 140.46875 -639.484375 L 60.875 -742.5 L 627.453125 -742.5 C 633.242188 -742.5 638.816406 -740.71875 644.171875 -737.15625 C 649.523438 -733.582031 654.429688 -729.34375 658.890625 -724.4375 C 663.347656 -719.09375 666.691406 -713.742188 668.921875 -708.390625 C 671.597656 -701.703125 672.488281 -696.796875 671.59375 -693.671875 L 588.65625 -312.390625 L 304.359375 -171.25 L 262.21875 -322.421875 Z M 421.421875 -402.6875 "/></g></g></g></g></g><g transform="matrix(1, 0, 0, 1, 109, 0.000000000000112861)"><g clip-path="url(#57fe2c43e5)"><g fill="#000000" fill-opacity="1"><g transform="translate(32.880818, 1149.900925)"><g><path d="M 604.886719 -322.414062 L 528.457031 27.585938 L 56.191406 27.585938 C 45.507812 27.585938 34.996094 24.40625 24.65625 18.042969 L 24.007812 17.644531 L 23.382812 17.210938 C 15.816406 11.972656 9.082031 6.105469 3.171875 -0.390625 C -2.988281 -7.238281 -8.019531 -15.214844 -11.921875 -24.324219 L 14.046875 -35.453125 L -10.757812 -21.921875 C -16.710938 -32.835938 -18.570312 -43.875 -16.335938 -55.042969 L 140.484375 -770.761719 L 612.734375 -770.761719 C 623.417969 -770.761719 633.929688 -767.582031 644.265625 -761.21875 L 644.914062 -760.820312 L 645.542969 -760.386719 C 653.109375 -755.148438 659.84375 -749.28125 665.75 -742.78125 L 666.246094 -742.238281 L 666.710938 -741.667969 C 672.246094 -734.90625 676.851562 -727.539062 680.53125 -719.5625 L 654.875 -707.722656 L 679.683594 -721.253906 C 685.632812 -710.339844 687.492188 -699.300781 685.257812 -688.132812 L 625.761719 -417.242188 L 410.144531 -550.46875 L 422.628906 -605.597656 L 450.1875 -599.355469 L 450.1875 -571.101562 L 317.738281 -571.101562 L 317.738281 -599.355469 L 345.332031 -593.269531 L 309 -428.621094 L 146.496094 -428.621094 L 146.496094 -456.875 L 167.253906 -476.046875 L 290.277344 -342.828125 L 245.679688 -137.8125 L 218.070312 -143.820312 L 218.070312 -172.074219 L 350.515625 -172.074219 L 350.515625 -143.820312 L 322.910156 -149.835938 L 353.679688 -290.980469 L 381.285156 -284.960938 L 381.285156 -256.707031 L 339.460938 -256.707031 L 155.660156 -456.367188 L 486.421875 -456.367188 L 608.234375 -337.738281 Z M 549.675781 -334.46875 L 577.28125 -328.441406 L 557.566406 -308.199219 L 455.222656 -407.867188 L 474.9375 -428.113281 L 474.9375 -399.855469 L 220.074219 -399.855469 L 220.074219 -428.113281 L 240.863281 -447.25 L 372.644531 -304.097656 L 351.855469 -284.960938 L 351.855469 -313.21875 L 416.367188 -313.21875 L 373.277344 -115.5625 L 183.003906 -115.5625 L 231.933594 -340.46875 L 259.542969 -334.460938 L 238.785156 -315.292969 L 81.9375 -485.132812 L 286.300781 -485.132812 L 286.300781 -456.875 L 258.707031 -462.964844 L 295.039062 -627.613281 L 485.554688 -627.613281 L 469.71875 -557.664062 L 442.160156 -563.902344 L 457.011719 -587.941406 L 621.566406 -486.265625 L 606.714844 -462.226562 L 579.117188 -468.289062 L 629.84375 -699.214844 C 629.570312 -697.839844 629.554688 -696.515625 629.796875 -695.242188 C 629.902344 -694.683594 629.996094 -694.332031 630.070312 -694.191406 L 629.617188 -695.023438 L 629.222656 -695.882812 C 627.550781 -699.5 625.46875 -702.835938 622.972656 -705.882812 L 644.84375 -723.777344 L 623.933594 -704.769531 C 620.921875 -708.082031 617.402344 -711.132812 613.375 -713.921875 L 629.457031 -737.15625 L 614.648438 -713.089844 C 613.699219 -713.675781 612.921875 -714.0625 612.316406 -714.257812 L 612.238281 -714.285156 C 612.378906 -714.261719 612.546875 -714.25 612.734375 -714.25 L 163.21875 -714.25 L 163.21875 -742.507812 L 190.820312 -736.457031 L 39.078125 -43.957031 C 39.355469 -45.335938 39.371094 -46.660156 39.128906 -47.929688 C 39.023438 -48.492188 38.929688 -48.84375 38.851562 -48.984375 L 39.492188 -47.8125 L 40.019531 -46.582031 C 41.464844 -43.203125 43.125 -40.480469 44.988281 -38.40625 C 48 -35.09375 51.523438 -32.039062 55.550781 -29.253906 L 39.464844 -6.019531 L 54.273438 -30.085938 C 55.222656 -29.5 56 -29.113281 56.605469 -28.917969 L 56.6875 -28.890625 C 56.546875 -28.914062 56.378906 -28.925781 56.191406 -28.925781 L 505.707031 -28.925781 L 505.707031 -0.667969 L 478.101562 -6.695312 Z M 549.675781 -334.46875 "/></g></g></g><g fill="#ffffff" fill-opacity="1"><g transform="translate(32.880818, 1149.900925)"><g><path d="M 577.28125 -328.4375 L 505.703125 -0.671875 L 56.1875 -0.671875 C 50.832031 -0.671875 45.257812 -2.453125 39.46875 -6.015625 C 33.664062 -10.035156 28.535156 -14.5 24.078125 -19.40625 C 20.066406 -23.863281 16.722656 -29.210938 14.046875 -35.453125 C 11.367188 -40.359375 10.476562 -45.039062 11.375 -49.5 L 163.21875 -742.5 L 612.734375 -742.5 C 618.085938 -742.5 623.660156 -740.71875 629.453125 -737.15625 C 635.253906 -733.132812 640.382812 -728.675781 644.84375 -723.78125 C 648.851562 -718.875 652.195312 -713.519531 654.875 -707.71875 C 657.550781 -702.8125 658.441406 -698.128906 657.546875 -693.671875 L 606.71875 -462.21875 L 442.15625 -563.90625 L 450.1875 -599.359375 L 317.734375 -599.359375 L 286.296875 -456.875 L 146.5 -456.875 L 259.546875 -334.46875 L 218.0625 -143.8125 L 350.515625 -143.8125 L 381.28125 -284.96875 L 351.859375 -284.96875 L 220.078125 -428.109375 L 474.9375 -428.109375 Z M 577.28125 -328.4375 "/></g></g></g></g></g></svg>